# xmcd
#
# Track frame offsets:
#	150
#	17818
#	36433
#	52268
#	68267
#
# Disc length: 1204 seconds
# Revision: 0
# Processed by: cddbd v1.5.2PL0 Copyright (c) Steve Scherf et al.
# Submitted via: dBpowerAMP V12.0
#
DISCID=3e04b205
DTITLE=Alex Bowen - Feather In The Ground
DYEAR=2013
DGENRE=Blues
TTITLE0=All My Love
TTITLE1=Comfort Me
TTITLE2=Wait For Me
TTITLE3=Goldless
TTITLE4=I Don't Think You Know How To Love Me
EXTD=
EXTT0=
EXTT1=
EXTT2=
EXTT3=
EXTT4=
PLAYORDER=
